<svg width="200" height="200" viewBox="0 0 200 200" fill="none" xmlns="http://www.w3.org/2000/svg">
<rect width="200" height="200" rx="20" fill="white"/>
<path d="M80.705 73.32C86.081 73.32 90.8597 74.472 95.041 76.776C99.3077 79.08 102.636 82.4933 105.025 87.016C107.5 91.5387 108.737 97 108.737 103.4V145H94.273V105.576C94.273 99.2613 92.6943 94.44 89.537 91.112C86.3797 87.6987 82.0703 85.992 76.609 85.992C71.1477 85.992 66.7957 87.6987 63.553 91.112C60.3957 94.44 58.817 99.2613 58.817 105.576V145H44.225V50.28H58.817V82.664C61.2917 79.6773 64.4063 77.3733 68.161 75.752C72.001 74.1307 76.1823 73.32 80.705 73.32ZM144.374 86.376V125.416C144.374 128.061 144.971 129.981 146.166 131.176C147.446 132.285 149.579 132.84 152.566 132.84H161.526V145H150.006C143.435 145 138.401 143.464 134.902 140.392C131.403 137.32 129.654 132.328 129.654 125.416V86.376H121.334V74.472H129.654V56.936H144.374V74.472H161.526V86.376H144.374Z" fill="#4E4FEB"/>
</svg>
