<svg width="512" height="512" viewBox="0 0 512 512" fill="none" xmlns="http://www.w3.org/2000/svg">
<rect width="512" height="512" rx="25" fill="#F8FAFC"/>
<path d="M119.335 406C169.334 406 236 389.334 236 272.669V139.337C236 118.504 223.384 105.721 202.667 106.005H136.002C115.169 106.005 102.669 118.504 102.669 138.871V239.336C102.669 260.169 115.169 272.669 136.002 272.669H148.501C148.501 310.168 152.668 339.334 102.669 339.334V389.334C102.669 406 102.669 406 119.335 406Z" fill="#0F172A" stroke="#0F172A" stroke-width="5" stroke-linecap="round" stroke-linejoin="round"/>
<path d="M292.666 406C342.666 406 409.331 389.334 409.331 272.669V139.337C409.331 118.504 396.715 105.721 375.998 106.005H309.333C288.5 106.005 276 118.504 276 138.871V239.336C276 260.169 288.5 272.669 309.333 272.669H321.833C321.833 310.168 325.999 339.334 276 339.334V389.334C276 406 276 406 292.666 406Z" fill="#0F172A" stroke="#0F172A" stroke-width="5" stroke-linecap="round" stroke-linejoin="round"/>
</svg>
